<svg width="125" height="60" viewBox="0 0 125 60" fill="none" xmlns="http://www.w3.org/2000/svg">
<path d="M67.8 27.5504V20.6504H74.6999L79.3 16.0504H67.8V14.7504H80.5999L85.1999 10.1504H63.2V32.1504L67.8 27.5504Z" fill="#F9CB00"/>
<path d="M49.9999 14.7504H51.2999V21.6504L55.8999 26.2504V14.7504H57.1999V27.5504L61.7999 32.1504V10.1504H39.7999L49.9999 20.3504V14.7504Z" fill="#F9CB00"/>
<path d="M74.8 44.4502L77 48.6502H76L75.7 48.0502H73.8L73.5 48.6502H72.5L74.8 44.4502ZM75.3 47.2502L74.8 46.1502L74.3 47.2502H75.3Z" fill="#F9CB00"/>
<path d="M77.7999 46.9508V44.5508H78.6999V46.9508C78.6999 47.7508 79.2999 47.9508 79.5999 47.9508C79.8999 47.9508 80.4999 47.7508 80.4999 46.9508V44.5508H81.3999V46.9508C81.3999 47.9508 80.6999 48.6508 79.5999 48.6508C78.4999 48.6508 77.7999 47.9508 77.7999 46.9508Z" fill="#F9CB00"/>
<path d="M83.7 48.5508V45.3508H82.5V44.5508H85.8V45.3508H84.6V48.5508H83.7Z" fill="#F9CB00"/>
<path d="M86.7 46.5502C86.7 45.4502 87.7 44.4502 88.9 44.4502C90 44.4502 91 45.4502 91 46.5502C91 47.7502 90 48.6502 88.8 48.6502C87.6 48.6502 86.7 47.7502 86.7 46.5502ZM87.5 46.5502C87.5 47.2502 88.1 47.8502 88.8 47.8502C89.5 47.8502 90.1 47.2502 90.1 46.5502C90.1 45.8502 89.5 45.2502 88.8 45.2502C88.1 45.2502 87.5 45.8502 87.5 46.5502Z" fill="#F9CB00"/>
<path d="M95.5999 45.9508C95.5999 46.7508 94.9999 47.3508 93.9999 47.3508H93.1999V48.5508H92.2999V44.5508H93.9999C94.9999 44.5508 95.5999 45.1508 95.5999 45.9508ZM94.6999 45.9508C94.6999 45.6508 94.4999 45.2508 93.9999 45.2508H93.1999V46.5508H94.0999C94.5999 46.6508 94.6999 46.3508 94.6999 45.9508Z" fill="#F9CB00"/>
<path d="M99.7999 45.3508H97.6999V46.2508H99.5999V46.9508H97.6999V47.8508H99.7999V48.5508H96.7999V44.5508H99.7999V45.3508Z" fill="#F9CB00"/>
<path d="M103.1 44.4502C103.9 44.4502 104.6 44.8502 105 45.5502L104.2 45.8502C104 45.5502 103.5 45.2502 103.1 45.2502C102.4 45.2502 101.8 45.8502 101.8 46.5502C101.8 47.2502 102.4 47.8502 103.1 47.8502C103.5 47.8502 104 47.5502 104.2 47.2502L105 47.5502C104.6 48.1502 104 48.6502 103.2 48.6502L103.1 48.8502C103.1 48.8502 103.2 48.8502 103.3 48.8502C103.5 48.9502 103.6 49.1502 103.6 49.3502C103.6 49.7502 103.1 49.8502 103 49.8502C102.7 49.8502 102.5 49.6502 102.5 49.6502L102.7 49.3502C102.8 49.3502 102.9 49.4502 103 49.4502C103.1 49.4502 103.2 49.3502 103.2 49.3502C103.2 49.2502 103.1 49.2502 103 49.2502C102.9 49.2502 102.8 49.2502 102.7 49.3502L102.6 49.1502L102.8 48.6502C101.7 48.5502 100.9 47.6502 100.9 46.5502C101 45.4502 101.9 44.4502 103.1 44.4502Z" fill="#F9CB00"/>
<path d="M107.9 44.4502L110.1 48.6502H109.1L108.8 48.0502H107L106.7 48.6502H105.7L107.9 44.4502ZM108.4 47.2502L107.9 46.1502L107.4 47.2502H108.4Z" fill="#F9CB00"/>
<path d="M112.6 47.8508C113.1 47.8508 113.3 47.6508 113.3 47.4508C113.3 47.1508 112.9 47.0508 112.4 46.9508C111.9 46.8508 110.8 46.6508 110.8 45.7508C110.8 44.7508 111.7 44.5508 112.4 44.5508C113.1 44.5508 113.6 44.7508 114 45.0508L113.5 45.7508C113.2 45.5508 112.8 45.3508 112.4 45.3508C112.1 45.3508 111.7 45.4508 111.7 45.7508C111.7 46.0508 112.1 46.1508 112.5 46.1508C113.2 46.2508 114.2 46.3508 114.2 47.4508C114.2 48.2508 113.6 48.6508 112.6 48.6508C111.7 48.6508 111.2 48.3508 110.8 48.0508L111.3 47.3508C111.5 47.6508 112.1 47.8508 112.6 47.8508Z" fill="#F9CB00"/>
<path d="M71.6999 46.25H10.7999V47.05H71.6999V46.25Z" fill="#F9CB00"/>
<path d="M20.8 36.1508C20.8 36.0508 20.7 35.9508 20.6 35.8508C20.5 35.7508 20.4 35.7508 20.3 35.6508C20.2 35.6508 20.1 35.5508 20 35.5508H19.4C19.3 35.5508 19.3 35.5508 19.2 35.5508C19.1 35.5508 19.1 35.5508 19 35.6508C18.9 35.6508 18.9 35.7508 18.9 35.7508L18.8 35.8508L15.8 40.4508L12.8 35.8508L12.7 35.7508L12.6 35.6508C12.5 35.6508 12.5 35.6508 12.4 35.5508C12.3 35.5508 12.3 35.5508 12.2 35.5508H11.6C11.5 35.5508 11.4 35.5508 11.3 35.6508C11.2 35.6508 11.1 35.7508 11 35.8508C10.9 35.9508 10.9 36.0508 10.8 36.1508C10.8 36.2508 10.7 36.3508 10.7 36.4508V42.6508H12.2V37.8508L15.1 42.1508C15.1 42.2508 15.2 42.2508 15.2 42.3508C15.2 42.4508 15.3 42.4508 15.4 42.5508C15.5 42.6508 15.5 42.6508 15.6 42.6508C15.7 42.6508 15.7 42.7508 15.8 42.7508C15.9 42.7508 15.9 42.7508 16 42.6508C16.1 42.6508 16.1 42.5508 16.2 42.5508C16.3 42.5508 16.3 42.4508 16.4 42.3508C16.4 42.2508 16.5 42.2508 16.5 42.1508L19.4 37.8508V42.6508H20.9V36.4508C20.8 36.3508 20.8 36.2508 20.8 36.1508Z" fill="white"/>
<path d="M26.7 35.6504C26.5 35.6504 26.3 35.8504 26 36.1504L21.6 42.7504H23.4L26.6 37.8504L29.8 42.7504H31.6L27.2 36.1504C27.1 35.8504 26.9 35.6504 26.7 35.6504Z" fill="white"/>
<path d="M41.4 39.5508C41.3 39.3508 41.1999 39.2508 41.0999 39.1508C40.9999 39.0508 40.8 38.9508 40.7 38.8508C40.5 38.7508 40.4 38.6508 40.2 38.6508C40 38.4508 39.8 38.4508 39.5 38.4508H34.4C34.3 38.4508 34.1999 38.4508 34.0999 38.3508C33.9999 38.3508 33.9 38.2508 33.9 38.1508C33.8 38.0508 33.7999 38.0508 33.7999 37.9508C33.7999 37.8508 33.7999 37.7508 33.7999 37.6508C33.7999 37.5508 33.7999 37.4508 33.7999 37.3508C33.7999 37.2508 33.9 37.1508 33.9 37.1508C34 37.0508 33.9999 37.0508 34.0999 36.9508C34.1999 36.9508 34.3 36.8508 34.4 36.8508H41.2999V35.5508H34.4C34.1 35.5508 33.8999 35.5508 33.5999 35.6508C33.3999 35.7508 33.2 35.8508 33 35.9508C32.8 36.0508 32.6999 36.2508 32.5999 36.4508C32.4999 36.6508 32.3999 36.8508 32.2999 37.0508C32.1999 37.2508 32.2 37.4508 32.2 37.6508C32.2 37.8508 32.1999 38.0508 32.2999 38.2508C32.3999 38.4508 32.4 38.6508 32.5 38.8508C32.6 39.0508 32.8 39.1508 32.9 39.3508C33.1 39.4508 33.3 39.5508 33.5 39.6508C33.7 39.7508 33.9999 39.7508 34.2999 39.7508H39.4C39.5 39.7508 39.6 39.7508 39.7 39.8508C39.8 39.8508 39.9 39.9508 39.9 40.0508C40 40.1508 40 40.1508 40 40.2508C40 40.3508 40 40.4508 40 40.4508C40 40.5508 40 40.6508 40 40.7508C40 40.8508 39.9 40.9508 39.9 41.0508C39.8 41.1508 39.8 41.1508 39.7 41.2508C39.6 41.3508 39.5 41.3508 39.4 41.3508H32.5V42.6508H39.4C39.6 42.6508 39.8 42.6508 40 42.5508C40.2 42.4508 40.4 42.4508 40.5 42.3508C40.7 42.2508 40.8 42.1508 40.9 41.9508C41 41.8508 41.1 41.6508 41.2 41.5508C41.3 41.3508 41.3 41.2508 41.4 41.0508C41.4 40.8508 41.5 40.7508 41.5 40.5508C41.5 40.3508 41.5 40.1508 41.4 40.0508C41.5 39.8508 41.5 39.7508 41.4 39.5508Z" fill="white"/>
<path d="M46.2 42.75H47.7V37.05H51.5V35.75H42.5V37.05H46.2V42.75Z" fill="white"/>
<path d="M52.9999 35.75C52.8999 35.75 52.7999 35.85 52.6999 35.95C52.5999 36.05 52.5999 36.15 52.4999 36.25C52.4999 36.35 52.3999 36.45 52.3999 36.55V41.95C52.3999 42.05 52.3999 42.15 52.4999 42.25C52.4999 42.35 52.5999 42.45 52.6999 42.55C52.7999 42.65 52.8999 42.65 52.9999 42.75C53.0999 42.75 53.1999 42.85 53.2999 42.85H61.4999V41.55H53.9999V39.95H60.5999V38.45H53.9999V37.05H61.4999V35.75H53.2999C53.1999 35.75 53.0999 35.75 52.9999 35.75Z" fill="white"/>
<path d="M69.4999 39.9506C69.6999 39.9506 69.8999 39.9506 70.0999 39.8506C70.2999 39.7506 70.4999 39.7506 70.5999 39.6506C70.7999 39.5506 70.8999 39.4506 70.9999 39.3506C71.0999 39.2506 71.1999 39.0506 71.2999 38.9506C71.3999 38.7506 71.3999 38.6506 71.4999 38.4506C71.4999 38.2506 71.5999 38.0506 71.5999 37.9506C71.5999 37.7506 71.5999 37.6506 71.4999 37.4506C71.4999 37.2506 71.3999 37.1506 71.2999 36.9506C71.1999 36.7506 71.0999 36.6506 70.9999 36.5506C70.8999 36.4506 70.6999 36.2506 70.5999 36.1506C70.3999 36.0506 70.2999 35.9506 70.0999 35.9506C69.8999 35.8506 69.6999 35.8506 69.4999 35.8506H63.2999C63.1999 35.8506 63.0999 35.8506 62.9999 35.9506C62.8999 35.9506 62.7999 36.0506 62.6999 36.1506C62.5999 36.2506 62.5999 36.3506 62.4999 36.4506C62.4999 36.5506 62.3999 36.6506 62.3999 36.7506V42.9506H63.9999V40.1506H67.6999L69.9999 42.9506H71.7999L69.4999 39.9506ZM63.9999 38.6506V37.0506H69.5999C69.6999 37.0506 69.7999 37.0506 69.8999 37.1506C69.9999 37.1506 70.0999 37.2506 70.0999 37.3506C70.1999 37.4506 70.1999 37.5506 70.1999 37.6506C70.1999 37.7506 70.1999 37.8506 70.1999 37.9506C70.1999 38.0506 70.1999 38.1506 70.1999 38.2506C70.1999 38.3506 70.0999 38.4506 70.0999 38.5506C69.9999 38.6506 69.9999 38.6506 69.8999 38.7506C69.7999 38.7506 69.6999 38.8506 69.5999 38.8506H63.9999V38.6506Z" fill="white"/>
<path d="M82.9999 35.75C82.8999 35.75 82.7999 35.85 82.6999 35.95C82.5999 36.05 82.5999 36.15 82.4999 36.25C82.4999 36.35 82.3999 36.45 82.3999 36.55V41.95C82.3999 42.05 82.3999 42.15 82.4999 42.25C82.4999 42.35 82.5999 42.45 82.6999 42.55C82.7999 42.65 82.8999 42.65 82.9999 42.75C83.0999 42.75 83.1999 42.85 83.2999 42.85H91.4999V41.55H83.9999V39.95H90.5999V38.45H83.9999V37.05H91.4999V35.75H83.2999C83.2999 35.75 83.0999 35.75 82.9999 35.75Z" fill="white"/>
<path d="M99.6 39.9506C99.8 39.9506 100 39.9506 100.2 39.8506C100.4 39.7506 100.6 39.7506 100.7 39.6506C100.9 39.5506 101 39.4506 101.1 39.3506C101.2 39.2506 101.3 39.0506 101.4 38.9506C101.5 38.7506 101.5 38.6506 101.6 38.4506C101.6 38.2506 101.7 38.0506 101.7 37.9506C101.7 37.7506 101.7 37.6506 101.6 37.4506C101.6 37.2506 101.5 37.1506 101.4 36.9506C101.3 36.7506 101.2 36.6506 101.1 36.5506C101 36.4506 100.8 36.2506 100.7 36.1506C100.5 36.0506 100.4 35.9506 100.2 35.9506C100 35.8506 99.8 35.8506 99.6 35.8506H93.4C93.3 35.8506 93.2 35.8506 93.1 35.9506C93 35.9506 92.9 36.0506 92.8 36.1506C92.7 36.2506 92.7 36.3506 92.6 36.4506C92.6 36.5506 92.5 36.6506 92.5 36.7506V42.9506H94V40.1506H97.7L100 42.9506H101.8L99.6 39.9506ZM94 38.6506V37.0506H99.6C99.7 37.0506 99.8 37.0506 99.9 37.1506C100 37.1506 100.1 37.2506 100.1 37.3506C100.2 37.4506 100.2 37.5506 100.2 37.6506C100.2 37.7506 100.2 37.8506 100.2 37.9506C100.2 38.0506 100.2 38.1506 100.2 38.2506C100.2 38.3506 100.1 38.4506 100.1 38.5506C100 38.6506 100 38.6506 99.9 38.7506C99.8 38.7506 99.7 38.8506 99.6 38.8506H94V38.6506Z" fill="white"/>
<path d="M109.7 39.9506C109.9 39.9506 110.1 39.9506 110.3 39.8506C110.5 39.7506 110.7 39.7506 110.8 39.6506C111 39.5506 111.1 39.4506 111.2 39.3506C111.3 39.2506 111.4 39.0506 111.5 38.9506C111.6 38.7506 111.6 38.6506 111.7 38.4506C111.7 38.2506 111.8 38.0506 111.8 37.9506C111.8 37.7506 111.8 37.6506 111.7 37.4506C111.7 37.2506 111.6 37.1506 111.5 36.9506C111.4 36.7506 111.3 36.6506 111.2 36.5506C111.1 36.4506 110.9 36.2506 110.8 36.1506C110.6 36.0506 110.5 35.9506 110.3 35.9506C110.1 35.8506 109.9 35.8506 109.7 35.8506H103.5C103.4 35.8506 103.3 35.8506 103.2 35.9506C103.1 35.9506 103 36.0506 102.9 36.1506C102.8 36.2506 102.8 36.3506 102.7 36.4506C102.7 36.5506 102.6 36.6506 102.6 36.7506V42.9506H104.1V40.1506H107.8L110.1 42.9506H111.9L109.7 39.9506ZM104.1 38.6506V37.0506H109.7C109.8 37.0506 109.9 37.0506 110 37.1506C110.1 37.1506 110.2 37.2506 110.2 37.3506C110.3 37.4506 110.3 37.5506 110.3 37.6506C110.3 37.7506 110.3 37.8506 110.3 37.9506C110.3 38.0506 110.3 38.1506 110.3 38.2506C110.3 38.3506 110.2 38.4506 110.2 38.5506C110.1 38.6506 110.1 38.6506 110 38.7506C109.9 38.7506 109.8 38.8506 109.7 38.8506H104.1V38.6506Z" fill="white"/>
<path d="M114.2 35.75H112.7V42.75H114.2V35.75Z" fill="white"/>
<path d="M72.9999 35.75C72.8999 35.75 72.7999 35.85 72.6999 35.95C72.5999 36.05 72.5999 36.15 72.4999 36.25C72.4999 36.35 72.3999 36.45 72.3999 36.55V42.75H73.9999V39.85H78.7999V38.45H73.9999V37.05H81.4999V35.75H73.2999C73.2999 35.75 73.0999 35.75 72.9999 35.75Z" fill="white"/>
</svg>
